<?xml version="1.0" encoding="utf-8"?>
<!-- Generator: Adobe Illustrator 16.0.0, SVG Export Plug-In . SVG Version: 6.00 Build 0)  -->
<!DOCTYPE svg PUBLIC "-//W3C//DTD SVG 1.1//EN" "http://www.w3.org/Graphics/SVG/1.1/DTD/svg11.dtd">
<svg version="1.1" id="Layer_1" xmlns="http://www.w3.org/2000/svg" xmlns:xlink="http://www.w3.org/1999/xlink" x="0px" y="0px"
	 width="576px" height="576px" viewBox="0 0 576 576" enable-background="new 0 0 576 576" xml:space="preserve">
<g>
	<polygon fill="#FC440F" points="288,108.014 140.972,160.577 162.303,356.361 288,426.446 	"/>
	<polygon fill="#F73306" points="288,108.014 435.028,160.577 413.697,356.361 288,426.446 	"/>
	<polygon fill="#FFFFFF" points="222.315,343.532 222.315,274.751 189.604,274.751 197.419,343.532 177.164,343.532 
		160.559,192.044 180.813,192.044 189.604,256.395 222.315,256.395 222.315,192.044 242.57,192.044 242.57,343.532 	"/>
	<path fill="#FFFFFF" d="M302.792,232.764v-13.292c0-6.046-3.557-9.072-10.672-9.072h-3.811c-6.949,0-10.418,3.026-10.418,9.072
		v25.108c0,2.814,0.675,4.714,2.032,5.696c1.354,0.985,3.558,2.251,6.606,3.798l23.12,10.338c5.082,2.394,8.678,4.257,10.798,5.591
		c2.115,1.34,3.768,2.954,4.956,4.854c1.182,1.898,1.778,5.521,1.778,10.865v32.281c0,17.021-9.827,25.529-29.473,25.529h-14.991
		c-19.48,0-29.219-9.283-29.219-27.851v-7.596h24.392v8.229c0,5.908,3.641,8.861,10.925,8.861h4.318
		c6.437,0,9.657-2.953,9.657-8.861v-25.74c0-2.813-0.68-4.711-2.033-5.696c-1.358-0.983-3.557-2.249-6.606-3.798l-23.121-10.76
		c-5.081-2.249-8.765-4.147-11.052-5.697c-2.287-1.546-3.938-3.551-4.954-6.014c-1.017-2.459-1.525-5.66-1.525-9.599v-31.016
		c0-17.302,9.738-25.951,29.219-25.951h15.246c19.475,0,29.218,8.649,29.218,25.951v14.769H302.792z"/>
	<path fill="#FFFFFF" d="M414.521,192.044l-18.222,151.488h-34.851l-26.767-151.488h21.921l21.204,122.458L392.6,192.044H414.521z"
		/>
	<g>
		
			<text transform="matrix(0.8679 0.4967 -0.4967 0.8679 157.4844 398.8896)" fill="#FC440F" font-family="'NexaBold'" font-size="45.9091" letter-spacing="1">WEB</text>
	</g>
	<g>
		
			<text transform="matrix(0.8725 -0.4886 0.4886 0.8725 328.3193 449.4453)" fill="#FC440F" font-family="'NexaBold'" font-size="45.9091" letter-spacing="1">DEV</text>
	</g>
</g>
</svg>
