<?xml version="1.0" encoding="utf-8"?>
<!-- Generator: Adobe Illustrator 16.0.0, SVG Export Plug-In . SVG Version: 6.00 Build 0)  -->
<!DOCTYPE svg PUBLIC "-//W3C//DTD SVG 1.1//EN" "http://www.w3.org/Graphics/SVG/1.1/DTD/svg11.dtd">
<svg version="1.1" id="Layer_1" xmlns="http://www.w3.org/2000/svg" xmlns:xlink="http://www.w3.org/1999/xlink" x="0px" y="0px"
	 width="576px" height="576px" viewBox="0 0 576 576" enable-background="new 0 0 576 576" xml:space="preserve">
<g>
	<polygon fill="#F04923" points="288.614,124.876 137.979,178.73 159.833,379.319 288.614,451.124 	"/>
	<polygon fill="#EF3B24" points="287.385,124.876 438.021,178.73 416.168,379.319 287.385,451.124 	"/>
	<polygon fill="#FFFFFF" points="221.318,366.175 221.318,295.706 187.806,295.706 195.812,366.175 175.06,366.175 158.046,210.969 
		178.798,210.969 187.806,276.899 221.318,276.899 221.318,210.969 242.07,210.969 242.07,366.175 	"/>
	<path fill="#FFFFFF" d="M303.77,252.688V239.07c0-6.194-3.643-9.295-10.933-9.295h-3.905c-7.119,0-10.673,3.101-10.673,9.295
		v25.724c0,2.884,0.69,4.83,2.083,5.837c1.385,1.01,3.643,2.306,6.767,3.891l23.688,10.592c5.206,2.452,8.89,4.361,11.063,5.728
		c2.166,1.373,3.859,3.028,5.077,4.973c1.211,1.945,1.822,5.658,1.822,11.133v33.073c0,17.438-10.068,26.155-30.196,26.155h-15.359
		c-19.958,0-29.935-9.511-29.935-28.532v-7.783h24.989v8.431c0,6.052,3.73,9.078,11.194,9.078h4.424
		c6.594,0,9.893-3.026,9.893-9.078v-26.372c0-2.88-0.696-4.828-2.082-5.836c-1.392-1.007-3.646-2.303-6.77-3.891l-23.688-11.025
		c-5.206-2.304-8.98-4.249-11.323-5.837c-2.344-1.584-4.034-3.638-5.077-6.161c-1.04-2.52-1.561-5.799-1.561-9.834v-31.776
		c0-17.727,9.976-26.589,29.935-26.589h15.621c19.952,0,29.935,8.862,29.935,26.589v15.13H303.77z"/>
	<path fill="#FFFFFF" d="M418.242,210.969l-18.669,155.206h-35.706l-27.425-155.206H358.9l21.725,125.464l15.157-125.464H418.242z"
		/>
</g>
</svg>
